<svg width="2261" height="2261" viewBox="0 0 2261 2261" fill="none" xmlns="http://www.w3.org/2000/svg">
<g clip-path="url(#clip0_380_2536)">
<rect width="2261" height="2261" rx="243.255" fill="#0C0B20"/>
<mask id="mask0_380_2536" style="mask-type:luminance" maskUnits="userSpaceOnUse" x="0" y="0" width="2261" height="2261">
<rect width="2261" height="2261" rx="243.255" fill="white"/>
</mask>
<g mask="url(#mask0_380_2536)">
</g>
<path d="M247.363 1240.61L134.902 841.828C133.653 837.399 136.826 832.95 141.459 832.701C224.949 828.22 308.974 838.875 344.321 851.386C379.572 863.864 435.964 882.539 487.447 947.346C490.47 951.151 496.345 951.194 499.349 947.374C531.711 906.233 570.289 868.471 629.389 851.386C690.253 833.793 759.91 821.041 846.161 832.13C850.502 832.689 853.314 836.923 852.186 841.115L744.376 1241.17C743.113 1245.86 737.656 1248.02 733.41 1245.61C696.111 1224.43 661.012 1214.27 629.389 1214.27C596.535 1214.27 535.385 1226.45 497.293 1248.25C494.881 1249.63 491.9 1249.63 489.505 1248.22C449.55 1224.68 408.552 1216.78 373.089 1214.27C339.59 1211.9 291.566 1225.11 258.869 1244.88C254.54 1247.5 248.728 1245.45 247.363 1240.61Z" fill="url(#paint0_linear_380_2536)"/>
<path d="M204.132 802.632L193.532 771.113C191.869 766.17 195.941 761.162 201.178 761.624C370.021 776.52 406.302 797.11 490.778 923.964C383.523 801.678 320.423 812.853 210.723 807.572C207.72 807.427 205.084 805.46 204.132 802.632Z" fill="#35BEFF" stroke="#35BEFF" stroke-width="2.03369"/>
<path d="M218.786 724.23V708.034C218.786 703.548 222.964 700.156 227.424 700.918C396.039 729.751 415.633 754.746 489.669 888.678C393.315 758.638 333.066 746.069 225.152 731.423C221.525 730.931 218.786 727.858 218.786 724.23Z" fill="#35BEFF" stroke="#35BEFF" stroke-width="2.03369"/>
<path d="M653.975 1192.3C631.733 1192.3 610.416 1189.42 590.029 1183.64C569.642 1177.61 553.223 1169.86 540.779 1160.42L562.624 1112.39C574.539 1120.79 588.571 1127.74 604.725 1133.26C621.14 1138.5 637.69 1141.13 654.372 1141.13C667.081 1141.13 677.277 1139.95 684.954 1137.59C692.898 1134.96 698.725 1131.42 702.43 1126.96C706.136 1122.5 707.991 1117.38 707.991 1111.61C707.991 1104.26 705.079 1098.49 699.253 1094.29C693.426 1089.83 685.749 1086.28 676.216 1083.66C666.684 1080.77 656.091 1078.15 644.442 1075.78C633.055 1073.16 621.537 1070.01 609.888 1066.34C598.501 1062.66 588.043 1057.94 578.511 1052.17C568.979 1046.39 561.166 1038.78 555.077 1029.33C549.251 1019.89 546.339 1007.81 546.339 993.118C546.339 977.372 550.577 963.07 559.049 950.211C567.787 937.09 580.763 926.723 597.973 919.113C615.448 911.24 637.293 907.304 663.507 907.304C680.983 907.304 698.192 909.403 715.14 913.602C732.087 917.538 747.045 923.574 760.021 931.71L740.162 980.128C727.186 972.78 714.214 967.4 701.239 963.989C688.263 960.315 675.553 958.478 663.11 958.478C650.666 958.478 640.471 959.921 632.527 962.808C624.583 965.694 618.892 969.5 615.448 974.223C612.005 978.685 610.285 983.933 610.285 989.969C610.285 997.055 613.196 1002.83 619.023 1007.29C624.85 1011.49 632.527 1014.9 642.059 1017.52C651.592 1020.15 662.049 1022.77 673.436 1025.4C685.085 1028.02 696.604 1031.04 707.991 1034.45C719.64 1037.86 730.233 1042.45 739.765 1048.23C749.297 1054 756.975 1061.61 762.801 1071.06C768.89 1080.51 771.936 1092.45 771.936 1106.88C771.936 1122.36 767.567 1136.53 758.829 1149.4C750.092 1162.26 736.985 1172.62 719.509 1180.49C702.299 1188.37 680.454 1192.3 653.975 1192.3ZM925.525 1190.73C901.162 1190.73 879.714 1186 861.182 1176.56C842.912 1167.11 828.745 1154.25 818.684 1137.98C808.62 1121.45 803.591 1102.68 803.591 1081.69C803.591 1060.43 808.488 1041.67 818.287 1025.4C828.347 1008.86 841.982 996.005 859.196 986.82C876.406 977.372 895.868 972.649 917.581 972.649C938.497 972.649 957.299 977.11 973.98 986.033C990.924 994.693 1004.3 1007.29 1014.1 1023.82C1023.89 1040.09 1028.79 1059.64 1028.79 1082.48C1028.79 1084.84 1028.66 1087.59 1028.39 1090.74C1028.13 1093.63 1027.86 1096.38 1027.6 1099.01H854.033V1063.19H995.031L971.2 1073.82C971.2 1062.79 968.948 1053.21 964.448 1045.08C959.944 1036.94 953.724 1030.65 945.781 1026.18C937.837 1021.46 928.567 1019.1 917.978 1019.1C907.386 1019.1 897.985 1021.46 889.779 1026.18C881.835 1030.65 875.612 1037.08 871.112 1045.47C866.608 1053.61 864.359 1063.32 864.359 1074.6V1084.05C864.359 1095.6 866.874 1105.83 871.906 1114.75C877.2 1123.41 884.48 1130.11 893.751 1134.83C903.283 1139.29 914.404 1141.52 927.114 1141.52C938.497 1141.52 948.426 1139.82 956.902 1136.41C965.64 1132.99 973.583 1127.87 980.733 1121.05L1013.7 1156.48C1003.9 1167.5 991.587 1176.03 976.761 1182.07C961.93 1187.84 944.851 1190.73 925.525 1190.73ZM1077.98 1187.58V895.494H1139.94V1187.58H1077.98ZM1212.94 1187.58V971.074C1212.94 947.193 1220.09 928.167 1234.39 913.996C1248.68 899.562 1269.07 892.345 1295.55 892.345C1304.55 892.345 1313.16 893.264 1321.37 895.101C1329.84 896.938 1336.99 899.824 1342.82 903.761L1326.53 948.243C1323.09 945.881 1319.25 944.044 1315.01 942.732C1310.78 941.42 1306.28 940.764 1301.51 940.764C1292.5 940.764 1285.49 943.388 1280.46 948.636C1275.69 953.623 1273.31 961.233 1273.31 971.468V991.15L1274.9 1017.52V1187.58H1212.94ZM1179.97 1027.76V980.522H1328.12V1027.76H1179.97ZM565.801 1533.99V1317.48C565.801 1293.6 572.95 1274.57 587.249 1260.4C601.547 1245.97 621.934 1238.75 648.414 1238.75C657.418 1238.75 666.021 1239.67 674.231 1241.51C682.702 1243.35 689.852 1246.23 695.678 1250.17L679.394 1294.65C675.95 1292.29 672.114 1290.45 667.876 1289.14C663.638 1287.83 659.138 1287.17 654.372 1287.17C645.368 1287.17 638.354 1289.8 633.321 1295.04C628.555 1300.03 626.172 1307.64 626.172 1317.88V1337.56L627.761 1363.93V1533.99H565.801ZM532.835 1374.17V1326.93H680.983V1374.17H532.835ZM715.934 1533.99V1322.21H777.894V1533.99H715.934ZM746.914 1292.68C735.527 1292.68 726.261 1289.4 719.112 1282.84C711.962 1276.28 708.388 1268.15 708.388 1258.43C708.388 1248.72 711.962 1240.59 719.112 1234.03C726.261 1227.47 735.527 1224.19 746.914 1224.19C758.301 1224.19 767.567 1227.34 774.717 1233.64C781.866 1239.67 785.44 1247.54 785.44 1257.25C785.44 1267.49 781.866 1276.02 774.717 1282.84C767.833 1289.4 758.563 1292.68 746.914 1292.68ZM973.015 1319.06C989.959 1319.06 1005.05 1322.47 1018.29 1329.29C1031.8 1335.85 1042.39 1346.09 1050.07 1360C1057.75 1373.64 1061.59 1391.22 1061.59 1412.74V1533.99H999.626V1422.19C999.626 1405.13 995.785 1392.54 988.108 1384.4C980.693 1376.26 970.1 1372.2 956.334 1372.2C946.536 1372.2 937.667 1374.3 929.723 1378.5C922.042 1382.43 915.953 1388.6 911.453 1397C907.215 1405.39 905.098 1416.16 905.098 1429.28V1533.99H843.138V1322.21H902.318V1380.86L891.197 1363.14C898.874 1348.97 909.864 1338.08 924.162 1330.47C938.461 1322.86 954.745 1319.06 973.015 1319.06ZM1256.76 1533.99V1492.65L1252.79 1483.6V1409.59C1252.79 1396.47 1248.68 1386.24 1240.47 1378.89C1232.53 1371.54 1220.22 1367.87 1203.54 1367.87C1192.15 1367.87 1180.9 1369.71 1169.78 1373.38C1158.92 1376.79 1149.66 1381.52 1141.97 1387.55L1119.73 1344.64C1131.39 1336.51 1145.42 1330.21 1161.83 1325.75C1178.25 1321.29 1194.93 1319.06 1211.88 1319.06C1244.45 1319.06 1269.73 1326.67 1287.74 1341.89C1305.75 1357.11 1314.75 1380.86 1314.75 1413.14V1533.99H1256.76ZM1191.62 1537.14C1174.94 1537.14 1160.64 1534.38 1148.73 1528.87C1136.81 1523.09 1127.68 1515.36 1121.32 1505.64C1114.97 1495.93 1111.79 1485.04 1111.79 1472.97C1111.79 1460.37 1114.84 1449.35 1120.92 1439.91C1127.28 1430.46 1137.21 1423.11 1150.71 1417.86C1164.22 1412.35 1181.83 1409.59 1203.54 1409.59H1260.33V1445.42H1210.29C1195.73 1445.42 1185.66 1447.78 1180.1 1452.5C1174.81 1457.23 1172.16 1463.13 1172.16 1470.22C1172.16 1478.09 1175.21 1484.39 1181.3 1489.11C1187.65 1493.57 1196.26 1495.8 1207.11 1495.8C1217.44 1495.8 1226.71 1493.44 1234.91 1488.72C1243.12 1483.73 1249.08 1476.51 1252.79 1467.07L1262.32 1495.41C1257.82 1509.06 1249.61 1519.42 1237.69 1526.51C1225.78 1533.59 1210.42 1537.14 1191.62 1537.14ZM1508.64 1319.06C1525.59 1319.06 1540.69 1322.47 1553.92 1329.29C1567.43 1335.85 1578.02 1346.09 1585.7 1360C1593.37 1373.64 1597.22 1391.22 1597.22 1412.74V1533.99H1535.26V1422.19C1535.26 1405.13 1531.42 1392.54 1523.74 1384.4C1516.32 1376.26 1505.73 1372.2 1491.96 1372.2C1482.17 1372.2 1473.3 1374.3 1465.35 1378.5C1457.68 1382.43 1451.58 1388.6 1447.08 1397C1442.84 1405.39 1440.73 1416.16 1440.73 1429.28V1533.99H1378.77V1322.21H1437.95V1380.86L1426.83 1363.14C1434.5 1348.97 1445.49 1338.08 1459.79 1330.47C1474.09 1322.86 1490.37 1319.06 1508.64 1319.06ZM1766.14 1537.14C1743.1 1537.14 1722.58 1532.54 1704.58 1523.36C1686.57 1513.91 1672.41 1500.92 1662.08 1484.39C1652.02 1467.85 1646.99 1449.09 1646.99 1428.1C1646.99 1406.84 1652.02 1388.07 1662.08 1371.8C1672.41 1355.27 1686.57 1342.41 1704.58 1333.23C1722.58 1323.78 1743.1 1319.06 1766.14 1319.06C1788.65 1319.06 1808.24 1323.78 1824.92 1333.23C1841.6 1342.41 1853.92 1355.67 1861.86 1372.99L1813.8 1398.57C1808.24 1388.6 1801.23 1381.25 1792.75 1376.53C1784.54 1371.8 1775.54 1369.44 1765.74 1369.44C1755.15 1369.44 1745.62 1371.8 1737.14 1376.53C1728.67 1381.25 1721.92 1387.94 1716.89 1396.6C1712.12 1405.26 1709.74 1415.76 1709.74 1428.1C1709.74 1440.43 1712.12 1450.93 1716.89 1459.59C1721.92 1468.25 1728.67 1474.94 1737.14 1479.66C1745.62 1484.39 1755.15 1486.75 1765.74 1486.75C1775.54 1486.75 1784.54 1484.52 1792.75 1480.06C1801.23 1475.33 1808.24 1467.85 1813.8 1457.62L1861.86 1483.6C1853.92 1500.66 1841.6 1513.91 1824.92 1523.36C1808.24 1532.54 1788.65 1537.14 1766.14 1537.14ZM2008.81 1537.14C1984.45 1537.14 1963 1532.41 1944.47 1522.96C1926.2 1513.52 1912.03 1500.66 1901.97 1484.39C1891.91 1467.85 1886.88 1449.09 1886.88 1428.1C1886.88 1406.84 1891.77 1388.07 1901.57 1371.8C1911.63 1355.27 1925.27 1342.41 1942.48 1333.23C1959.69 1323.78 1979.15 1319.06 2000.87 1319.06C2021.78 1319.06 2040.58 1323.52 2057.27 1332.44C2074.21 1341.1 2087.58 1353.7 2097.38 1370.23C2107.18 1386.5 2112.08 1406.05 2112.08 1428.88C2112.08 1431.24 2111.94 1434 2111.68 1437.15C2111.41 1440.04 2111.15 1442.79 2110.89 1445.42H1937.32V1409.59H2078.32L2054.49 1420.22C2054.49 1409.2 2052.23 1399.62 2047.73 1391.49C2043.23 1383.35 2037.01 1377.05 2029.07 1372.59C2021.12 1367.87 2011.85 1365.51 2001.26 1365.51C1990.67 1365.51 1981.27 1367.87 1973.06 1372.59C1965.12 1377.05 1958.9 1383.48 1954.4 1391.88C1949.89 1400.02 1947.65 1409.72 1947.65 1421.01V1430.46C1947.65 1442 1950.16 1452.24 1955.19 1461.16C1960.49 1469.82 1967.77 1476.51 1977.04 1481.24C1986.57 1485.7 1997.69 1487.93 2010.4 1487.93C2021.78 1487.93 2031.71 1486.23 2040.19 1482.81C2048.93 1479.4 2056.87 1474.28 2064.02 1467.46L2096.98 1502.89C2087.19 1513.91 2074.87 1522.44 2060.05 1528.48C2045.22 1534.25 2028.14 1537.14 2008.81 1537.14Z" fill="white"/>
</g>
<defs>
<linearGradient id="paint0_linear_380_2536" x1="817.691" y1="829.062" x2="281.72" y2="1172.96" gradientUnits="userSpaceOnUse">
<stop stop-color="#007AFF"/>
<stop offset="1" stop-color="#35BEFF"/>
</linearGradient>
<clipPath id="clip0_380_2536">
<rect width="2261" height="2261" rx="243.256" fill="white"/>
</clipPath>
</defs>
</svg>
